PathFileType	4	(X/Y/Z)	C:/Users/opensim2020/Desktop/walking_exp_matlab/subject02_walking08_straight_04.trc	
DataRate	CameraRate	NumFrames	NumMarkers	Units	OrigDataRate	OrigDataStartFrame	OrigNumFrames	
100.00	100.00	5	41	mm	100.00	2987	241	
Frame#	Time	LFHD			RFHD			LBHD			RBHD			C7			T10			CLAV			STRN			RBAK			LSHO			LUPA			LELB			LFRM			LWRA			LWRB			LFIN			RSHO			RUPA			RELB			RFRM			RWRA			RWRB			RFIN			LASI			RASI			LPSI			RPSI			LTHI			LKNE			LTIB			LANK			LHEE			LTOE			RTHI			RKNE			RTIB			RANK			RHEE			RTOE			*39			*40			
		X1	Y1	Z1	X2	Y2	Z2	X3	Y3	Z3	X4	Y4	Z4	X5	Y5	Z5	X6	Y6	Z6	X7	Y7	Z7	X8	Y8	Z8	X9	Y9	Z9	X10	Y10	Z10	X11	Y11	Z11	X12	Y12	Z12	X13	Y13	Z13	X14	Y14	Z14	X15	Y15	Z15	X16	Y16	Z16	X17	Y17	Z17	X18	Y18	Z18	X19	Y19	Z19	X20	Y20	Z20	X21	Y21	Z21	X22	Y22	Z22	X23	Y23	Z23	X24	Y24	Z24	X25	Y25	Z25	X26	Y26	Z26	X27	Y27	Z27	X28	Y28	Z28	X29	Y29	Z29	X30	Y30	Z30	X31	Y31	Z31	X32	Y32	Z32	X33	Y33	Z33	X34	Y34	Z34	X35	Y35	Z35	X36	Y36	Z36	X37	Y37	Z37	X38	Y38	Z38	X39	Y39	Z39	X40	Y40	Z40	X41	Y41	Z41	

1	0.000	1509.98706	992.94098	1746.37207	1368.36816	1003.17218	1723.68677	1529.54773	1122.42432	1671.72253	1390.02673	1144.76404	1648.36792	1450.86633	1185.42542	1535.15112	1432.87268	1250.56763	1261.24219	1473.77625	1051.00684	1458.92993	1469.42114	1006.63196	1285.36353	1378.41516	1245.28992	1363.89514	1633.23596	1131.75732	1506.77148	1740.17224	1111.55042	1322.77649	1781.62769	1066.38757	1193.48755	1809.17944	992.55444	1084.70447	1794.27197	879.78326	1006.65430	1824.43225	922.68542	985.56256	1839.78577	872.39435	946.46661	1272.14917	1091.55212	1497.81140	1188.00037	1127.77258	1308.43433	1177.51880	1126.23962	1160.35596	1163.32886	1100.84692	1041.96326	1187.46924	1056.77246	915.52582	1153.92310	1102.59436	911.45294	1155.25854	1065.26343	848.15918	1594.23035	1045.83032	991.53131	1339.54651	1009.80750	984.25928	1481.63965	1241.03271	1041.59216	1367.80017	1230.15820	1040.08691	1624.75830	1146.59680	685.08325	1590.09595	1199.81091	487.81973	1585.56262	1277.67969	308.64822	1547.54370	1294.88147	84.44991	1495.26038	1330.65637	59.31997	1562.66345	1140.32129	38.37587	1249.36035	1007.31891	690.93402	1282.84351	941.53583	495.00336	1272.71643	975.36481	310.89310	1302.71692	983.65973	117.75803	1361.23645	1010.03088	59.61301	1283.96704	833.51257	68.23441	1424.65259	1100.49805	1808.68860	-3357.36621	2845.95825	1034.17285 
2	0.010	1510.14966	983.84973	1745.00037	1368.73193	994.77301	1722.15747	1530.32385	1113.70642	1670.98535	1390.74902	1136.46362	1647.45190	1452.04871	1177.25879	1534.26758	1434.15051	1242.87683	1260.55139	1474.44983	1043.00391	1457.76636	1470.08582	998.74915	1284.19739	1378.13220	1235.37195	1362.35730	1634.10571	1122.95679	1506.18762	1741.60901	1101.66321	1322.82678	1783.32092	1055.35193	1193.90796	1810.95959	980.29279	1086.06445	1795.65356	866.86554	1009.11267	1825.81848	909.28870	987.44672	1841.43298	858.50482	949.32703	1273.08838	1084.21399	1496.81934	1188.97119	1121.70508	1307.68335	1178.25500	1120.92358	1159.66467	1163.92920	1096.02905	1041.17529	1187.82715	1051.99744	914.67822	1154.27490	1098.04028	910.59015	1155.43408	1061.04321	847.23761	1594.48401	1038.33411	990.61005	1340.08008	1002.55109	983.32831	1482.54675	1233.54810	1040.84167	1368.63696	1222.87512	1039.47876	1624.83228	1141.35498	683.94513	1590.25659	1196.29858	487.45850	1585.80334	1275.63660	308.87787	1547.54858	1294.58801	84.88587	1495.37756	1330.75720	60.11419	1562.67896	1140.31592	38.39409	1249.75317	1001.28473	689.88300	1284.76270	934.51947	493.73666	1275.08545	959.91791	308.14618	1305.47754	959.63916	114.92473	1364.09253	983.05817	55.86932	1287.24902	806.86902	71.55608	1425.24683	1091.58301	1807.72791	-3360.30249	2845.19995	1033.87952 
3	0.020	1510.32263	974.89526	1743.68542	1368.73254	986.22046	1720.52661	1530.97339	1104.93909	1670.13892	1391.46790	1128.17944	1646.50452	1453.14209	1169.02783	1533.30237	1435.26111	1235.10693	1259.65601	1475.10803	1034.77795	1456.61621	1470.32092	990.74347	1282.80518	1381.56018	1230.32581	1362.35901	1634.83203	1114.08008	1505.32849	1742.85706	1091.85364	1322.65454	1785.29102	1044.79785	1194.42334	1812.49512	968.37775	1087.11011	1796.65369	854.41089	1011.16687	1827.65942	896.49725	989.57037	1842.81433	845.07574	951.82922	1273.89233	1076.78491	1495.63452	1189.91443	1115.41833	1306.73352	1179.02673	1115.35730	1158.73694	1164.54150	1090.54712	1040.06421	1188.26294	1047.28699	913.17975	1154.93701	1093.57507	909.59167	1155.50500	1056.62097	846.15277	1594.59814	1030.84619	989.56226	1340.62769	995.27991	982.14917	1483.39197	1226.13989	1040.08301	1369.39673	1215.46118	1038.72021	1625.56116	1136.34668	683.40955	1590.36865	1192.80737	487.09482	1585.83606	1273.40063	309.14755	1547.57141	1294.31714	85.34550	1495.11096	1330.46484	60.44157	1562.67615	1140.28479	38.34711	1250.33044	995.47412	688.10291	1286.58948	927.80585	492.20386	1277.45923	944.90454	305.83191	1308.60571	935.15125	112.47740	1366.77319	956.70129	53.14346	1290.13855	781.03455	75.20554	1425.68713	1082.61426	1806.67529	-3360.42212	2845.22217	1033.98267 
4	0.030	1510.35474	965.89111	1742.28577	1368.92090	977.59863	1719.14233	1531.45325	1096.10229	1669.21643	1392.04871	1119.83032	1645.43481	1454.04944	1160.69910	1532.28967	1436.42737	1227.30762	1258.81934	1475.25012	1026.45178	1455.17798	1470.87109	982.77789	1281.59082	1382.32190	1221.95483	1361.15869	1635.53723	1105.22144	1504.44226	1744.19995	1082.46753	1322.45691	1786.68408	1034.39331	1194.40540	1813.80420	956.90192	1087.81238	1797.46069	842.19910	1012.94836	1828.80872	884.03821	990.99121	1843.78979	832.09906	953.84790	1274.50293	1069.20557	1494.33630	1190.76294	1109.18250	1305.81262	1179.69629	1109.60767	1157.75476	1165.04736	1085.66882	1038.82544	1188.00867	1042.16125	911.89191	1155.35083	1088.82092	908.46484	1155.52246	1052.05164	844.88245	1594.52844	1023.03442	988.21576	1340.87146	987.69635	980.72858	1484.04675	1218.55737	1039.20544	1370.00623	1207.89429	1037.87305	1625.90686	1131.13428	682.64380	1590.58777	1189.33398	486.78329	1585.73169	1271.27246	309.26636	1547.56519	1294.10144	85.86768	1495.08936	1330.40906	61.18094	1562.70142	1140.24866	38.31458	1250.66040	989.72015	686.16211	1288.59656	921.04614	490.70428	1279.53125	930.08502	303.68985	1310.87634	912.00488	110.89656	1369.25769	930.99249	51.09241	1292.71619	756.28552	79.55824	1425.69348	1073.52124	1805.42786	-3360.35547	2845.27124	1033.89575 
5	0.040	1510.45093	957.01416	1740.92590	1368.96899	969.35779	1717.45520	1531.84424	1087.24121	1668.19360	1392.49426	1111.35071	1644.23987	1454.87793	1152.28833	1531.17554	1437.44141	1219.33521	1257.81189	1475.87366	1018.15582	1453.99805	1470.88184	974.58856	1280.10193	1381.84778	1211.89819	1359.22180	1636.08557	1096.28601	1503.44080	1745.12732	1072.97693	1321.86548	1787.78455	1024.21521	1194.01929	1814.80762	945.78070	1088.17334	1798.09375	830.58118	1014.19952	1829.62695	872.04590	992.00238	1844.46338	819.60614	955.32324	1275.00623	1061.53967	1492.96326	1191.00049	1101.93030	1304.50562	1180.29834	1103.73462	1156.67603	1165.16162	1080.66089	1037.84094	1187.94629	1036.98206	910.44293	1155.59851	1083.34070	907.22113	1155.51721	1047.27576	843.58093	1594.85718	1015.59320	986.99994	1341.26904	979.79578	979.61908	1484.57434	1210.87854	1038.23145	1370.43994	1200.22827	1036.85339	1626.16040	1125.84924	681.81097	1590.64795	1185.68640	486.48984	1585.92896	1269.30298	309.85562	1547.46973	1293.66296	86.24674	1495.12512	1330.32507	61.98435	1562.70093	1140.21326	38.18384	1251.15417	984.19855	684.29218	1290.59570	914.33655	488.95386	1281.46057	915.56244	302.00067	1313.10266	889.42548	109.79082	1371.26245	906.52502	49.80332	1295.05017	732.55420	84.23256	1426.06592	1064.71729	1804.34265	-3357.50024	2845.80127	1034.21204 
